<?xml version="1.0" encoding="iso-8859-1"?>
<!-- Generator: Adobe Illustrator 19.0.0, SVG Export Plug-In . SVG Version: 6.00 Build 0)  -->
<svg xmlns="http://www.w3.org/2000/svg" xmlns:xlink="http://www.w3.org/1999/xlink" version="1.1" id="Capa_1" x="0px" y="0px" viewBox="0 0 512 512" style="enable-background:new 0 0 512 512;" xml:space="preserve" width="35px" height="35px">
<g>
	<g>
		<path d="M347.84,212c-16.79,0-28.478,0-71.177,0c-12.426,0-22.5,10.074-22.5,22.5c0,12.426,10.074,22.5,22.5,22.5h52.5    c8.284,0,15,6.716,15,15s-6.716,15-15,15h-30c-24.814,0-45,20.186-45,45c0,8.291-6.709,15-15,15s-15-6.709-15-15    c0-21.929,8.22-41.125,23.297-54.932c-6-4.054-11.444-8.84-15.286-15.02c-10.799,7.768-23.556,11.355-38.011,9.249v-0.055    c-24.02-3.479-41.469-22.725-44.33-45.123l-0.059-0.026c-0.986-7.716-0.612-163.582-0.612-171.594c0-12.426-10.074-22.5-22.5-22.5    c-12.426,0-22.5,10.074-22.5,22.5c0,93.922,0,159.131,0,252.759c0,19.435,15.113,57.512,21.284,76.025    c6.094,18.267,20.801,31.802,38.716,36.709V497c0,8.284,6.716,15,15,15h150c8.284,0,15-6.716,15-15v-77.124    c17.871-5.2,32.183-19.468,37.002-38.203c2.544-9.899,26.675-100.038,26.675-109.673C407.84,238.863,380.977,212,347.84,212z" style="fill:#D80027;stroke:black;"/>
	</g>
</g>
<g>
	<g>
		<path d="M351.663,0c-12.426,0-22.5,12.074-22.5,24.5V182h18.677c9.219,0,17.942,1.796,26.323,4.384V24.5    C374.163,12.074,364.09,0,351.663,0z" style="fill:#D80027;stroke:black;"/>
	</g>
</g>
<g>
	<g>
		<path d="M276.663,92c-12.426,0-22.5,10.074-22.5,22.5v72.766c6.846-3.278,14.418-5.266,22.5-5.266h22.5v-67.5    C299.163,102.074,289.09,92,276.663,92z" style="fill:#D80027;stroke:black;"/>
	</g>
</g>
<g>
	<g>
		<path d="M201.663,122c-12.426,0-22.5,10.074-22.5,22.5v75c0,12.426,10.074,22.5,22.5,22.5c12.426,0,22.5-10.074,22.5-22.5v-75    C224.163,132.074,214.09,122,201.663,122z" style="fill:#D80027;stroke:black;"/>
	</g>
</g>
<g>
</g>
<g>
</g>
<g>
</g>
<g>
</g>
<g>
</g>
<g>
</g>
<g>
</g>
<g>
</g>
<g>
</g>
<g>
</g>
<g>
</g>
<g>
</g>
<g>
</g>
<g>
</g>
<g>
</g>
</svg>
