<svg xmlns="http://www.w3.org/2000/svg" xmlns:xlink="http://www.w3.org/1999/xlink" version="1.1" x="0px" y="0px" viewBox="0 0 50 50" enable-background="new 0 0 50 50" xml:space="preserve"><path d="M70.818,12.09C54.61-4.117,28.421-3.986,12.214,12.222C-3.994,28.429-4.109,54.676,12.098,70.884L41.382,100l29.347-29.347  C86.937,54.445,87.026,28.298,70.818,12.09z M41.493,66.225c-13.789,0-24.968-11.18-24.968-24.969  c0-13.79,11.179-24.969,24.968-24.969c13.79,0,24.969,11.179,24.969,24.969C66.462,55.045,55.283,66.225,41.493,66.225z"/><polygon points="59.086,40.231 40.993,22.22 23.099,39.856 29.14,39.923 29.14,54.633 53.14,54.633 53.14,40.167 "/><text x="0" y="115" fill="#000000" font-size="5px" font-weight="bold" font-family="'Helvetica Neue', Helvetica, Arial-Unicode, Arial, Sans-serif">Created by Venkatesh Aiyulu</text><text x="0" y="120" fill="#000000" font-size="5px" font-weight="bold" font-family="'Helvetica Neue', Helvetica, Arial-Unicode, Arial, Sans-serif">from the Noun Project</text></svg>
